# Blender v3.0.1 OBJ File: ''
# www.blender.org
mtllib bench.mtl
o _gltfNode_0_Mesh_0
v -0.625000 0.000000 0.875000
v -0.625000 0.000000 0.875000
v -0.625000 0.000000 0.875000
v -0.625000 0.000000 1.000000
v -0.625000 0.000000 1.000000
v -0.625000 0.000000 1.000000
v -0.625000 0.875000 0.875000
v -0.625000 0.875000 0.875000
v -0.625000 0.875000 1.000000
v -0.625000 0.875000 1.000000
v -0.500000 0.000000 0.875000
v -0.500000 0.000000 0.875000
v -0.500000 0.000000 0.875000
v -0.500000 0.000000 1.000000
v -0.500000 0.000000 1.000000
v -0.500000 0.000000 1.000000
v -0.500000 0.875000 0.875000
v -0.500000 0.875000 0.875000
v -0.500000 0.875000 1.000000
v -0.500000 0.875000 1.000000
vt 0.814071 0.435938
vt 0.814071 0.001562
vt 0.873428 0.435938
vt 0.873428 0.001562
vt 0.876580 0.435938
vt 0.876580 0.001562
vt 0.935937 0.435938
vt 0.935937 0.001562
vt 0.935937 0.435938
vt 0.935937 0.001562
vt 0.876580 0.435938
vt 0.876580 0.001562
vt 0.935937 0.435938
vt 0.935937 0.001562
vt 0.876580 0.435938
vt 0.876580 0.001562
vt 0.751562 0.060979
vt 0.751562 0.001562
vt 0.810919 0.060979
vt 0.810919 0.001562
vn 0.0000 0.0000 1.0000
vn 0.0000 0.0000 -1.0000
vn 1.0000 -0.0000 0.0063
vn -1.0000 0.0000 0.0063
vn 0.0000 -1.0000 0.0063
usemtl None
s off
f 10/1/1 6/2/1 19/3/1
f 6/2/1 15/4/1 19/3/1
f 17/5/2 12/6/2 8/7/2
f 12/6/2 3/8/2 8/7/2
s 1
f 20/9/3 16/10/3 18/11/3
f 16/10/3 13/12/3 18/11/3
f 7/13/4 1/14/4 9/15/4
f 1/14/4 4/16/4 9/15/4
f 5/17/5 2/18/5 14/19/5
f 2/18/5 11/20/5 14/19/5
o _gltfNode_2_Mesh_1
v 1.500000 0.000000 0.875000
v 1.500000 0.000000 0.875000
v 1.500000 0.000000 0.875000
v 1.500000 0.000000 1.000000
v 1.500000 0.000000 1.000000
v 1.500000 0.000000 1.000000
v 1.500000 0.875000 0.875000
v 1.500000 0.875000 0.875000
v 1.500000 0.875000 1.000000
v 1.500000 0.875000 1.000000
v 1.625000 0.000000 0.875000
v 1.625000 0.000000 0.875000
v 1.625000 0.000000 0.875000
v 1.625000 0.000000 1.000000
v 1.625000 0.000000 1.000000
v 1.625000 0.000000 1.000000
v 1.625000 0.875000 0.875000
v 1.625000 0.875000 0.875000
v 1.625000 0.875000 1.000000
v 1.625000 0.875000 1.000000
vt 0.873428 0.435938
vt 0.873428 0.001562
vt 0.814071 0.435938
vt 0.814071 0.001562
vt 0.935937 0.435938
vt 0.935937 0.001562
vt 0.876580 0.435938
vt 0.876580 0.001562
vt 0.876580 0.435938
vt 0.876580 0.001562
vt 0.935937 0.435938
vt 0.935937 0.001562
vt 0.876580 0.435938
vt 0.876580 0.001562
vt 0.935937 0.435938
vt 0.935937 0.001562
vt 0.751562 0.060979
vt 0.751562 0.001562
vt 0.810919 0.060979
vt 0.810919 0.001562
vn 0.0000 0.0000 1.0000
vn 0.0000 0.0000 -1.0000
vn 1.0000 -0.0000 0.0063
vn -1.0000 0.0000 0.0063
vn 0.0000 -1.0000 0.0063
usemtl None
s off
f 30/21/6 26/22/6 39/23/6
f 26/22/6 35/24/6 39/23/6
f 37/25/7 32/26/7 28/27/7
f 32/26/7 23/28/7 28/27/7
s 1
f 40/29/8 36/30/8 38/31/8
f 36/30/8 33/32/8 38/31/8
f 27/33/9 21/34/9 29/35/9
f 21/34/9 24/36/9 29/35/9
f 25/37/10 22/38/10 34/39/10
f 22/38/10 31/40/10 34/39/10
o _gltfNode_4_Mesh_2
v 1.562500 0.625000 0.250000
v 1.562500 0.625000 0.875000
v 1.562500 0.875000 0.250000
v 1.562500 0.875000 0.875000
v 1.562623 0.625000 0.250000
v 1.562623 0.625000 0.875000
v 1.562623 0.875000 0.250000
v 1.562623 0.875000 0.875000
vt 0.310937 0.310938
vt 0.310937 0.189063
vt 0.001563 0.310938
vt 0.001563 0.189063
vt 0.001563 0.310938
vt 0.001563 0.189063
vt 0.310937 0.310938
vt 0.310937 0.189063
vn 1.0000 -0.0000 0.0063
vn -1.0000 0.0000 0.0063
usemtl None
s 1
f 48/41/11 46/42/11 47/43/11
f 46/42/11 45/44/11 47/43/11
f 43/45/12 41/46/12 44/47/12
f 41/46/12 42/48/12 44/47/12
o _gltfNode_6_Mesh_3
v -0.562500 0.625000 0.250000
v -0.562500 0.625000 0.875000
v -0.562500 0.875000 0.250000
v -0.562500 0.875000 0.875000
v -0.562456 0.625000 0.250000
v -0.562456 0.625000 0.875000
v -0.562456 0.875000 0.250000
v -0.562456 0.875000 0.875000
vt 0.310937 0.310938
vt 0.310937 0.189063
vt 0.001563 0.310938
vt 0.001563 0.189063
vt 0.001563 0.310938
vt 0.001563 0.189063
vt 0.310937 0.310938
vt 0.310937 0.189063
vn 1.0000 -0.0000 0.0063
vn -1.0000 0.0000 0.0063
usemtl None
s 1
f 56/49/13 54/50/13 55/51/13
f 54/50/13 53/52/13 55/51/13
f 51/53/14 49/54/14 52/55/14
f 49/54/14 50/56/14 52/55/14
o _gltfNode_8_Mesh_4
v 1.500000 0.500000 0.250000
v 1.500000 0.500000 0.250000
v 1.500000 0.500000 0.875000
v 1.500000 0.500000 0.875000
v 1.500000 0.625000 0.250000
v 1.500000 0.625000 0.250000
v 1.500000 0.625000 0.875000
v 1.500000 0.625000 0.875000
v 1.625000 0.500000 0.250000
v 1.625000 0.500000 0.250000
v 1.625000 0.500000 0.875000
v 1.625000 0.500000 0.875000
v 1.625000 0.625000 0.250000
v 1.625000 0.625000 0.250000
v 1.625000 0.625000 0.875000
v 1.625000 0.625000 0.875000
vt 0.001563 0.373437
vt 0.001563 0.314063
vt 0.310945 0.373437
vt 0.310945 0.314063
vt 0.001563 0.314063
vt 0.001563 0.373437
vt 0.310945 0.314063
vt 0.310945 0.373437
vt 0.751551 0.373437
vt 0.751551 0.064062
vt 0.810937 0.373437
vt 0.810937 0.064062
vt 0.810937 0.373437
vt 0.810937 0.064062
vt 0.751551 0.373437
vt 0.751551 0.064062
vn 1.0000 -0.0000 0.0063
vn -1.0000 0.0000 0.0063
vn 0.0000 1.0000 0.0063
vn 0.0000 -1.0000 0.0063
usemtl None
s 1
f 72/57/15 68/58/15 70/59/15
f 68/58/15 66/60/15 70/59/15
f 61/61/16 57/62/16 63/63/16
f 57/62/16 59/64/16 63/63/16
f 62/65/17 64/66/17 69/67/17
f 64/66/17 71/68/17 69/67/17
f 60/69/18 58/70/18 67/71/18
f 58/70/18 65/72/18 67/71/18
o _gltfNode_10_Mesh_5
v -0.625010 0.499995 0.249980
v -0.625010 0.499995 0.249980
v -0.625010 0.499995 0.875963
v -0.625010 0.499995 0.875963
v -0.625010 0.624995 0.249980
v -0.625010 0.624995 0.249980
v -0.625010 0.624995 0.875963
v -0.625010 0.624995 0.875963
v -0.500010 0.499995 0.249980
v -0.500010 0.499995 0.249980
v -0.500010 0.499995 0.875963
v -0.500010 0.499995 0.875963
v -0.500010 0.624995 0.249980
v -0.500010 0.624995 0.249980
v -0.500010 0.624995 0.875963
v -0.500010 0.624995 0.875963
vt 0.001563 0.314063
vt 0.001563 0.373437
vt 0.310945 0.314063
vt 0.310945 0.373437
vt 0.001563 0.373437
vt 0.001563 0.314063
vt 0.310945 0.373437
vt 0.310945 0.314063
vt 0.810937 0.373437
vt 0.810937 0.064062
vt 0.751551 0.373437
vt 0.751551 0.064062
vt 0.751551 0.373437
vt 0.751551 0.064062
vt 0.810937 0.373437
vt 0.810937 0.064062
vn 1.0000 -0.0000 0.0063
vn -1.0000 0.0000 0.0063
vn 0.0000 1.0000 0.0063
vn 0.0000 -1.0000 0.0063
usemtl None
s 1
f 88/73/19 84/74/19 86/75/19
f 84/74/19 82/76/19 86/75/19
f 77/77/20 73/78/20 79/79/20
f 73/78/20 75/80/20 79/79/20
f 78/81/21 80/82/21 85/83/21
f 80/82/21 87/84/21 85/83/21
f 76/85/22 74/86/22 83/87/22
f 74/86/22 81/88/22 83/87/22
o _gltfNode_12_Mesh_6
v -0.625000 0.875000 0.250000
v -0.625000 0.875000 0.250000
v -0.625000 0.875000 1.062500
v -0.625000 0.875000 1.062500
v -0.625000 0.875000 1.062500
v -0.625000 0.937500 0.250000
v -0.625000 0.937500 0.250000
v -0.625000 0.937500 1.062500
v -0.625000 0.937500 1.062500
v -0.625000 0.937500 1.062500
v -0.500000 0.875000 0.250000
v -0.500000 0.875000 0.250000
v -0.500000 0.875000 1.062500
v -0.500000 0.875000 1.062500
v -0.500000 0.875000 1.062500
v -0.500000 0.937500 0.250000
v -0.500000 0.937500 0.250000
v -0.500000 0.937500 1.062500
v -0.500000 0.937500 1.062500
v -0.500000 0.937500 1.062500
vt 0.939048 0.029669
vt 0.939048 0.001562
vt 0.998440 0.029669
vt 0.998440 0.001562
vt 0.404646 0.435938
vt 0.404646 0.407831
vt 0.001563 0.435938
vt 0.001563 0.407831
vt 0.001563 0.404703
vt 0.001563 0.376543
vt 0.404646 0.404703
vt 0.404646 0.376543
vt 0.998440 0.404703
vt 0.998440 0.001562
vt 0.939048 0.404703
vt 0.939048 0.001562
vt 0.998440 0.001562
vt 0.998440 0.404703
vt 0.939048 0.001562
vt 0.939048 0.404703
vn 0.0000 0.0000 1.0000
vn 1.0000 -0.0000 0.0063
vn -1.0000 0.0000 0.0063
vn 0.0000 1.0000 0.0063
vn 0.0000 -1.0000 0.0063
usemtl None
s off
f 97/89/23 93/90/23 106/91/23
f 93/90/23 102/92/23 106/91/23
s 1
f 108/93/24 103/94/24 105/95/24
f 103/94/24 100/96/24 105/95/24
f 94/97/25 89/98/25 96/99/25
f 89/98/25 91/100/25 96/99/25
f 95/101/26 98/102/26 104/103/26
f 98/102/26 107/104/26 104/103/26
f 92/105/27 90/106/27 101/107/27
f 90/106/27 99/108/27 101/107/27
o _gltfNode_14_Mesh_7
v 1.500000 0.875000 0.250000
v 1.500000 0.875000 0.250000
v 1.500000 0.875000 1.062500
v 1.500000 0.875000 1.062500
v 1.500000 0.875000 1.062500
v 1.500000 0.937500 0.250000
v 1.500000 0.937500 0.250000
v 1.500000 0.937500 1.062500
v 1.500000 0.937500 1.062500
v 1.500000 0.937500 1.062500
v 1.625000 0.875000 0.250000
v 1.625000 0.875000 0.250000
v 1.625000 0.875000 1.062500
v 1.625000 0.875000 1.062500
v 1.625000 0.875000 1.062500
v 1.625000 0.937500 0.250000
v 1.625000 0.937500 0.250000
v 1.625000 0.937500 1.062500
v 1.625000 0.937500 1.062500
v 1.625000 0.937500 1.062500
vt 0.939048 0.029669
vt 0.939048 0.001562
vt 0.998440 0.029669
vt 0.998440 0.001562
vt 0.404646 0.404703
vt 0.404646 0.376543
vt 0.001563 0.404703
vt 0.001563 0.376543
vt 0.001563 0.435938
vt 0.001563 0.407831
vt 0.404646 0.435938
vt 0.404646 0.407831
vt 0.939048 0.404703
vt 0.939048 0.001562
vt 0.998440 0.404703
vt 0.998440 0.001562
vt 0.939048 0.001562
vt 0.939048 0.404703
vt 0.998440 0.001562
vt 0.998440 0.404703
vn 0.0000 0.0000 1.0000
vn 1.0000 -0.0000 0.0063
vn -1.0000 0.0000 0.0063
vn 0.0000 1.0000 0.0063
vn 0.0000 -1.0000 0.0063
usemtl None
s off
f 117/109/28 113/110/28 126/111/28
f 113/110/28 122/112/28 126/111/28
s 1
f 128/113/29 123/114/29 125/115/29
f 123/114/29 120/116/29 125/115/29
f 114/117/30 109/118/30 116/119/30
f 109/118/30 111/120/30 116/119/30
f 115/121/31 118/122/31 124/123/31
f 118/122/31 127/124/31 124/123/31
f 112/125/32 110/126/32 121/127/32
f 110/126/32 119/128/32 121/127/32
o _gltfNode_16_Mesh_8
v 1.468750 0.000000 0.062500
v 1.468750 0.000000 0.062500
v 1.468750 0.000000 0.062500
v 1.468750 0.000000 0.250000
v 1.468750 0.000000 0.250000
v 1.468750 0.000000 0.250000
v 1.468750 1.437500 0.062500
v 1.468750 1.437500 0.062500
v 1.468750 1.437500 0.062500
v 1.468750 1.437500 0.250000
v 1.468750 1.437500 0.250000
v 1.468750 1.437500 0.250000
v 1.656250 0.000000 0.062500
v 1.656250 0.000000 0.062500
v 1.656250 0.000000 0.062500
v 1.656250 0.000000 0.250000
v 1.656250 0.000000 0.250000
v 1.656250 0.000000 0.250000
v 1.656250 1.437500 0.062500
v 1.656250 1.437500 0.062500
v 1.656250 1.437500 0.062500
v 1.656250 1.437500 0.250000
v 1.656250 1.437500 0.250000
v 1.656250 1.437500 0.250000
vt 0.001563 0.185934
vt 0.748438 0.185934
vt 0.001563 0.095314
vt 0.748438 0.095314
vt 0.001563 0.092182
vt 0.748438 0.092182
vt 0.001563 0.001562
vt 0.748438 0.001562
vt 0.001563 0.001562
vt 0.748438 0.001562
vt 0.001563 0.092182
vt 0.748438 0.092182
vt 0.001563 0.095314
vt 0.748438 0.095314
vt 0.001563 0.185934
vt 0.748438 0.185934
vt 0.314045 0.373437
vt 0.314045 0.282818
vt 0.404680 0.373437
vt 0.404680 0.282818
vt 0.404680 0.189066
vt 0.404680 0.279685
vt 0.314045 0.189066
vt 0.314045 0.279685
vn 0.0000 0.0000 1.0000
vn 0.0000 0.0000 -1.0000
vn 1.0000 -0.0000 0.0063
vn -1.0000 0.0000 0.0063
vn 0.0000 1.0000 0.0063
vn 0.0000 -1.0000 0.0063
usemtl None
s off
f 139/129/33 134/130/33 150/131/33
f 134/130/33 145/132/33 150/131/33
f 147/133/34 142/134/34 136/135/34
f 142/134/34 131/136/34 136/135/34
s 1
f 152/137/35 146/138/35 149/139/35
f 146/138/35 143/140/35 149/139/35
f 135/141/36 129/142/36 138/143/36
f 129/142/36 132/144/36 138/143/36
f 137/145/37 140/146/37 148/147/37
f 140/146/37 151/148/37 148/147/37
f 133/149/38 130/150/38 144/151/38
f 130/150/38 141/152/38 144/151/38
o _gltfNode_18_Mesh_9
v -0.656250 0.000000 0.062500
v -0.656250 0.000000 0.062500
v -0.656250 0.000000 0.062500
v -0.656250 0.000000 0.250000
v -0.656250 0.000000 0.250000
v -0.656250 0.000000 0.250000
v -0.656250 1.437500 0.062500
v -0.656250 1.437500 0.062500
v -0.656250 1.437500 0.062500
v -0.656250 1.437500 0.250000
v -0.656250 1.437500 0.250000
v -0.656250 1.437500 0.250000
v -0.468750 0.000000 0.062500
v -0.468750 0.000000 0.062500
v -0.468750 0.000000 0.062500
v -0.468750 0.000000 0.250000
v -0.468750 0.000000 0.250000
v -0.468750 0.000000 0.250000
v -0.468750 1.437500 0.062500
v -0.468750 1.437500 0.062500
v -0.468750 1.437500 0.062500
v -0.468750 1.437500 0.250000
v -0.468750 1.437500 0.250000
v -0.468750 1.437500 0.250000
vt 0.001563 0.095314
vt 0.748438 0.095314
vt 0.001563 0.185934
vt 0.748438 0.185934
vt 0.001563 0.001562
vt 0.748438 0.001562
vt 0.001563 0.092182
vt 0.748438 0.092182
vt 0.001563 0.185934
vt 0.748438 0.185934
vt 0.001563 0.095314
vt 0.748438 0.095314
vt 0.001563 0.092182
vt 0.748438 0.092182
vt 0.001563 0.001562
vt 0.748438 0.001562
vt 0.404680 0.373437
vt 0.404680 0.282818
vt 0.314045 0.373437
vt 0.314045 0.282818
vt 0.404680 0.189066
vt 0.404680 0.279685
vt 0.314045 0.189066
vt 0.314045 0.279685
vn 0.0000 0.0000 1.0000
vn 0.0000 0.0000 -1.0000
vn 1.0000 -0.0000 0.0063
vn -1.0000 0.0000 0.0063
vn 0.0000 1.0000 0.0063
vn 0.0000 -1.0000 0.0063
usemtl None
s off
f 163/153/39 158/154/39 174/155/39
f 158/154/39 169/156/39 174/155/39
f 171/157/40 166/158/40 160/159/40
f 166/158/40 155/160/40 160/159/40
s 1
f 176/161/41 170/162/41 173/163/41
f 170/162/41 167/164/41 173/163/41
f 159/165/42 153/166/42 162/167/42
f 153/166/42 156/168/42 162/167/42
f 161/169/43 164/170/43 172/171/43
f 164/170/43 175/172/43 172/171/43
f 157/173/44 154/174/44 168/175/44
f 154/174/44 165/176/44 168/175/44
o _gltfNode_20_Mesh_10
v -0.500000 1.187500 0.125000
v -0.500000 1.187500 0.125000
v -0.500000 1.187500 0.187500
v -0.500000 1.187500 0.187500
v -0.500000 1.375000 0.125000
v -0.500000 1.375000 0.125000
v -0.500000 1.375000 0.187500
v -0.500000 1.375000 0.187500
v 1.499996 1.187500 0.125000
v 1.499996 1.187500 0.125000
v 1.499996 1.187500 0.187500
v 1.499996 1.187500 0.187500
v 1.499996 1.375000 0.125000
v 1.499996 1.375000 0.125000
v 1.499996 1.375000 0.187500
v 1.499996 1.375000 0.187500
vt 0.001563 0.998437
vt 0.001563 0.907812
vt 0.998437 0.998437
vt 0.998437 0.907812
vt 0.998437 0.998437
vt 0.998437 0.907812
vt 0.001563 0.998437
vt 0.001563 0.907812
vt 0.001563 0.998437
vt 0.001563 0.970239
vt 0.998437 0.998437
vt 0.998437 0.970239
vt 0.001563 0.936010
vt 0.001563 0.907812
vt 0.998437 0.936010
vt 0.998437 0.907812
vn 0.0000 0.0000 1.0000
vn 0.0000 0.0000 -1.0000
vn 0.0000 1.0000 0.0063
vn 0.0000 -1.0000 0.0063
usemtl None
s off
f 183/177/45 180/178/45 191/179/45
f 180/178/45 188/180/45 191/179/45
f 189/181/46 186/182/46 181/183/46
f 186/182/46 178/184/46 181/183/46
s 1
f 182/185/47 184/186/47 190/187/47
f 184/186/47 192/188/47 190/187/47
f 179/189/48 177/190/48 187/191/48
f 177/190/48 185/192/48 187/191/48
o _gltfNode_22_Mesh_11
v -0.500000 0.937500 0.125000
v -0.500000 0.937500 0.125000
v -0.500000 0.937500 0.187500
v -0.500000 0.937500 0.187500
v -0.500000 1.125000 0.125000
v -0.500000 1.125000 0.125000
v -0.500000 1.125000 0.187500
v -0.500000 1.125000 0.187500
v 1.499996 0.937500 0.125000
v 1.499996 0.937500 0.125000
v 1.499996 0.937500 0.187500
v 1.499996 0.937500 0.187500
v 1.499996 1.125000 0.125000
v 1.499996 1.125000 0.125000
v 1.499996 1.125000 0.187500
v 1.499996 1.125000 0.187500
vt 0.001563 0.904687
vt 0.001563 0.814062
vt 0.998437 0.904687
vt 0.998437 0.814062
vt 0.998437 0.904687
vt 0.998437 0.814062
vt 0.001563 0.904687
vt 0.001563 0.814062
vt 0.001563 0.904687
vt 0.001563 0.876489
vt 0.998437 0.904687
vt 0.998437 0.876489
vt 0.001563 0.842260
vt 0.001563 0.814062
vt 0.998437 0.842260
vt 0.998437 0.814062
vn 0.0000 0.0000 1.0000
vn 0.0000 0.0000 -1.0000
vn 0.0000 1.0000 0.0063
vn 0.0000 -1.0000 0.0063
usemtl None
s off
f 199/193/49 196/194/49 207/195/49
f 196/194/49 204/196/49 207/195/49
f 205/197/50 202/198/50 197/199/50
f 202/198/50 194/200/50 197/199/50
s 1
f 198/201/51 200/202/51 206/203/51
f 200/202/51 208/204/51 206/203/51
f 195/205/52 193/206/52 203/207/52
f 193/206/52 201/208/52 203/207/52
o _gltfNode_24_Mesh_12
v -0.500000 0.625000 0.125000
v -0.500000 0.625000 0.125000
v -0.500000 0.625000 0.187500
v -0.500000 0.625000 0.187500
v -0.500000 0.875000 0.125000
v -0.500000 0.875000 0.125000
v -0.500000 0.875000 0.187500
v -0.500000 0.875000 0.187500
v 1.499996 0.625000 0.125000
v 1.499996 0.625000 0.125000
v 1.499996 0.625000 0.187500
v 1.499996 0.625000 0.187500
v 1.499996 0.875000 0.125000
v 1.499996 0.875000 0.125000
v 1.499996 0.875000 0.187500
v 1.499996 0.875000 0.187500
vt 0.001563 0.810937
vt 0.001563 0.689062
vt 0.998437 0.810937
vt 0.998437 0.689062
vt 0.998437 0.810937
vt 0.998437 0.689062
vt 0.001563 0.810937
vt 0.001563 0.689062
vt 0.001563 0.810937
vt 0.001563 0.782794
vt 0.998437 0.810937
vt 0.998437 0.782794
vt 0.001563 0.717205
vt 0.001563 0.689062
vt 0.998437 0.717205
vt 0.998437 0.689062
vn 0.0000 0.0000 1.0000
vn 0.0000 0.0000 -1.0000
vn 0.0000 1.0000 0.0063
vn 0.0000 -1.0000 0.0063
usemtl None
s off
f 215/209/53 212/210/53 223/211/53
f 212/210/53 220/212/53 223/211/53
f 221/213/54 218/214/54 213/215/54
f 218/214/54 210/216/54 213/215/54
s 1
f 214/217/55 216/218/55 222/219/55
f 216/218/55 224/220/55 222/219/55
f 211/221/56 209/222/56 219/223/56
f 209/222/56 217/224/56 219/223/56
o _gltfNode_26_Mesh_13
v -0.500010 0.499995 0.249980
v -0.500010 0.499995 0.249980
v -0.500010 0.499995 0.499979
v -0.500010 0.499995 0.499979
v -0.500010 0.562495 0.249980
v -0.500010 0.562495 0.249980
v -0.500010 0.562495 0.499979
v -0.500010 0.562495 0.499979
v 1.499990 0.499995 0.249980
v 1.499990 0.499995 0.249980
v 1.499990 0.499995 0.499979
v 1.499990 0.499995 0.499979
v 1.499990 0.562495 0.249980
v 1.499990 0.562495 0.249980
v 1.499990 0.562495 0.499979
v 1.499990 0.562495 0.499979
vt 0.998437 0.686023
vt 0.998437 0.657855
vt 0.001563 0.686023
vt 0.001563 0.657855
vt 0.001563 0.717187
vt 0.001563 0.689019
vt 0.998437 0.717187
vt 0.998437 0.689019
vt 0.998437 0.564062
vt 0.998437 0.686023
vt 0.001563 0.564062
vt 0.001563 0.686023
vt 0.998437 0.686023
vt 0.998437 0.564062
vt 0.001563 0.686023
vt 0.001563 0.564062
vn 0.0000 0.0000 1.0000
vn 0.0000 0.0000 -1.0000
vn 0.0000 1.0000 0.0063
vn 0.0000 -1.0000 0.0063
usemtl None
s off
f 231/225/57 228/226/57 239/227/57
f 228/226/57 236/228/57 239/227/57
f 237/229/58 234/230/58 229/231/58
f 234/230/58 226/232/58 229/231/58
s 1
f 230/233/59 232/234/59 238/235/59
f 232/234/59 240/236/59 238/235/59
f 227/237/60 225/238/60 235/239/60
f 225/238/60 233/240/60 235/239/60
o _gltfNode_28_Mesh_14
v -0.500000 0.500000 0.562500
v -0.500000 0.500000 0.562500
v -0.500000 0.500000 0.750000
v -0.500000 0.500000 0.750000
v -0.500000 0.562500 0.562500
v -0.500000 0.562500 0.562500
v -0.500000 0.562500 0.750000
v -0.500000 0.562500 0.750000
v 1.499996 0.500000 0.562500
v 1.499996 0.500000 0.562500
v 1.499996 0.500000 0.750000
v 1.499996 0.500000 0.750000
v 1.499996 0.562500 0.562500
v 1.499996 0.562500 0.562500
v 1.499996 0.562500 0.750000
v 1.499996 0.562500 0.750000
vt 0.998437 0.498533
vt 0.998437 0.470376
vt 0.001563 0.498533
vt 0.001563 0.470376
vt 0.001563 0.935937
vt 0.001563 0.907780
vt 0.998437 0.935937
vt 0.998437 0.907780
vt 0.998437 0.529602
vt 0.998437 0.439063
vt 0.001563 0.529602
vt 0.001563 0.439063
vt 0.998437 0.439063
vt 0.998437 0.529602
vt 0.001563 0.439063
vt 0.001563 0.529602
vn 0.0000 0.0000 1.0000
vn 0.0000 0.0000 -1.0000
vn 0.0000 1.0000 0.0063
vn 0.0000 -1.0000 0.0063
usemtl None
s off
f 247/241/61 244/242/61 255/243/61
f 244/242/61 252/244/61 255/243/61
f 253/245/62 250/246/62 245/247/62
f 250/246/62 242/248/62 245/247/62
s 1
f 246/249/63 248/250/63 254/251/63
f 248/250/63 256/252/63 254/251/63
f 243/253/64 241/254/64 251/255/64
f 241/254/64 249/256/64 251/255/64
o _gltfNode_30_Mesh_15
v -0.500000 0.437500 0.812500
v -0.500000 0.437500 0.812500
v -0.500000 0.437500 0.812500
v -0.500000 0.437500 1.062500
v -0.500000 0.437500 1.062500
v -0.500000 0.437500 1.062500
v -0.500000 0.562500 0.812500
v -0.500000 0.562500 0.812500
v -0.500000 0.562500 0.812500
v -0.500000 0.562500 1.062500
v -0.500000 0.562500 1.062500
v -0.500000 0.562500 1.062500
v 1.499996 0.437500 0.812500
v 1.499996 0.437500 0.812500
v 1.499996 0.437500 0.812500
v 1.499996 0.437500 1.062500
v 1.499996 0.437500 1.062500
v 1.499996 0.437500 1.062500
v 1.499996 0.562500 0.812500
v 1.499996 0.562500 0.812500
v 1.499996 0.562500 0.812500
v 1.499996 0.562500 1.062500
v 1.499996 0.562500 1.062500
v 1.499996 0.562500 1.062500
vt 0.001563 0.560942
vt 0.001563 0.501562
vt 0.998440 0.560942
vt 0.998440 0.501562
vt 0.998440 0.592185
vt 0.998440 0.532805
vt 0.001563 0.592185
vt 0.001563 0.532805
vt 0.876614 0.560942
vt 0.876614 0.501562
vt 0.998440 0.560942
vt 0.998440 0.501562
vt 0.001563 0.560942
vt 0.001563 0.501562
vt 0.123388 0.560942
vt 0.123388 0.501562
vt 0.001563 0.564071
vt 0.001563 0.685937
vt 0.998440 0.564071
vt 0.998440 0.685937
vt 0.001563 0.685937
vt 0.001563 0.564071
vt 0.998440 0.685937
vt 0.998440 0.564071
vn 0.0000 0.0000 1.0000
vn 0.0000 0.0000 -1.0000
vn 1.0000 -0.0000 0.0063
vn -1.0000 0.0000 0.0063
vn 0.0000 1.0000 0.0063
vn 0.0000 -1.0000 0.0063
usemtl None
s off
f 267/257/65 262/258/65 278/259/65
f 262/258/65 273/260/65 278/259/65
f 275/261/66 270/262/66 264/263/66
f 270/262/66 259/264/66 264/263/66
s 1
f 280/265/67 274/266/67 277/267/67
f 274/266/67 271/268/67 277/267/67
f 263/269/68 257/270/68 266/271/68
f 257/270/68 260/272/68 266/271/68
f 265/273/69 268/274/69 276/275/69
f 268/274/69 279/276/69 276/275/69
f 261/277/70 258/278/70 272/279/70
f 258/278/70 269/280/70 272/279/70
